HIERARCHY
ROOT hip
{
  OFFSET 0 0 0
  CHANNELS 6 Xposition Yposition Zposition Zrotation Yrotation Xrotation
  JOINT abdomen
  {
    OFFSET 0 20.6881 -0.73152
    CHANNELS 3 Zrotation Xrotation Yrotation
    JOINT chest
    {
      OFFSET 0 11.7043 -0.48768
      CHANNELS 3 Zrotation Xrotation Yrotation
      JOINT neck
      {
        OFFSET 0 22.1894 -2.19456
        CHANNELS 3 Zrotation Xrotation Yrotation
        JOINT head
        {
          OFFSET -0.24384 7.07133 1.2192
          CHANNELS 3 Zrotation Xrotation Yrotation
          JOINT leftEye
          {
            OFFSET 4.14528 8.04674 8.04672
            CHANNELS 3 Zrotation Xrotation Yrotation
            End Site
            {
              OFFSET 1 0 0
            }
          }
          JOINT rightEye
          {
            OFFSET -3.6576 8.04674 8.04672
            CHANNELS 3 Zrotation Xrotation Yrotation
            End Site
            {
              OFFSET 1 0 0
            }
          }
        }
      }
      JOINT rCollar
      {
        OFFSET -2.68224 19.2634 -4.8768
        CHANNELS 3 Zrotation Xrotation Yrotation
        JOINT rShldr
        {
          OFFSET -8.77824 -1.95073 1.46304
          CHANNELS 3 Zrotation Xrotation Yrotation
          JOINT rForeArm
          {
            OFFSET -28.1742 -1.7115 0.48768
            CHANNELS 3 Zrotation Xrotation Yrotation
            JOINT rHand
            {
              OFFSET -22.5879 0.773209 7.07136
              CHANNELS 3 Zrotation Xrotation Yrotation
              JOINT rThumb1
              {
                OFFSET -1.2192 -0.487915 3.41376
                CHANNELS 3 Zrotation Xrotation Yrotation
                JOINT rThumb2
                {
                  OFFSET -3.37035 -0.52449 3.41376
                  CHANNELS 3 Zrotation Xrotation Yrotation
                  End Site
                  {
                    OFFSET -1.78271 -1.18214 1.43049
                  }
                }
              }
              JOINT rIndex1
              {
                OFFSET -7.75947 0.938293 5.60832
                CHANNELS 3 Zrotation Xrotation Yrotation
                JOINT rIndex2
                {
                  OFFSET -2.54057 -0.884171 1.56538
                  CHANNELS 3 Zrotation Xrotation Yrotation
                  End Site
                  {
                    OFFSET -1.62519 -0.234802 1.16502
                  }
                }
              }
              JOINT rMid1
              {
                OFFSET -8.24714 1.18213 3.41376
                CHANNELS 3 Zrotation Xrotation Yrotation
                JOINT rMid2
                {
                  OFFSET -3.10165 -0.590103 1.0647
                  CHANNELS 3 Zrotation Xrotation Yrotation
                  End Site
                  {
                    OFFSET -2.48547 -0.328903 0.83742
                  }
                }
              }
              JOINT rRing1
              {
                OFFSET -8.82822 0.546677 1.51678
                CHANNELS 3 Zrotation Xrotation Yrotation
                JOINT rRing2
                {
                  OFFSET -2.60934 -0.819778 -0.0198488
                  CHANNELS 3 Zrotation Xrotation Yrotation
                  End Site
                  {
                    OFFSET -2.33842 -0.294052 0.168128
                  }
                }
              }
              JOINT rPinky1
              {
                OFFSET -8.27202 -0.0477905 -0.4584
                CHANNELS 3 Zrotation Xrotation Yrotation
                JOINT rPinky2
                {
                  OFFSET -1.82734 -0.647385 -0.700984
                  CHANNELS 3 Zrotation Xrotation Yrotation
                  End Site
                  {
                    OFFSET -1.69225 -0.51767 -0.607171
                  }
                }
              }
            }
          }
        }
      }
      JOINT lCollar
      {
        OFFSET 2.68224 19.2634 -4.8768
        CHANNELS 3 Zrotation Xrotation Yrotation
        JOINT lShldr
        {
          OFFSET 8.77824 -1.95073 1.46304
          CHANNELS 3 Zrotation Xrotation Yrotation
          JOINT lForeArm
          {
            OFFSET 28.1742 -1.7115 0.48768
            CHANNELS 3 Zrotation Xrotation Yrotation
            JOINT lHand
            {
              OFFSET 22.5879 0.773209 7.07136
              CHANNELS 3 Zrotation Xrotation Yrotation
              JOINT lThumb1
              {
                OFFSET 1.2192 -0.487915 3.41376
                CHANNELS 3 Zrotation Xrotation Yrotation
                JOINT lThumb2
                {
                  OFFSET 3.37035 -0.52449 3.41376
                  CHANNELS 3 Zrotation Xrotation Yrotation
                  End Site
                  {
                    OFFSET 1.78271 -1.18214 1.43049
                  }
                }
              }
              JOINT lIndex1
              {
                OFFSET 7.75947 0.938293 5.60832
                CHANNELS 3 Zrotation Xrotation Yrotation
                JOINT lIndex2
                {
                  OFFSET 2.54057 -0.884171 1.56538
                  CHANNELS 3 Zrotation Xrotation Yrotation
                  End Site
                  {
                    OFFSET 1.62519 -0.234802 1.16502
                  }
                }
              }
              JOINT lMid1
              {
                OFFSET 8.24714 1.18213 3.41376
                CHANNELS 3 Zrotation Xrotation Yrotation
                JOINT lMid2
                {
                  OFFSET 3.10165 -0.590103 1.0647
                  CHANNELS 3 Zrotation Xrotation Yrotation
                  End Site
                  {
                    OFFSET 2.48547 -0.328903 0.83742
                  }
                }
              }
              JOINT lRing1
              {
                OFFSET 8.82822 0.546677 1.51678
                CHANNELS 3 Zrotation Xrotation Yrotation
                JOINT lRing2
                {
                  OFFSET 2.60934 -0.819778 -0.0198488
                  CHANNELS 3 Zrotation Xrotation Yrotation
                  End Site
                  {
                    OFFSET 2.33842 -0.294052 0.168128
                  }
                }
              }
              JOINT lPinky1
              {
                OFFSET 8.27202 -0.0477905 -0.4584
                CHANNELS 3 Zrotation Xrotation Yrotation
                JOINT lPinky2
                {
                  OFFSET 1.82734 -0.647385 -0.700984
                  CHANNELS 3 Zrotation Xrotation Yrotation
                  End Site
                  {
                    OFFSET 1.69225 -0.51767 -0.607171
                  }
                }
              }
            }
          }
        }
      }
    }
  }
  JOINT rButtock
  {
    OFFSET -8.77824 4.35084 1.2192
    CHANNELS 3 Zrotation Xrotation Yrotation
    JOINT rThigh
    {
      OFFSET 0 -1.70687 -2.19456
      CHANNELS 3 Zrotation Xrotation Yrotation
      JOINT rShin
      {
        OFFSET 0 -36.8199 0.73152
        CHANNELS 3 Zrotation Xrotation Yrotation
        JOINT rFoot
        {
          OFFSET 0.73152 -45.1104 -5.12064
          CHANNELS 3 Zrotation Xrotation Yrotation
          End Site
          {
            OFFSET -1.1221 -3.69964 12.103
          }
        }
      }
    }
  }
  JOINT lButtock
  {
    OFFSET 8.77824 4.35084 1.2192
    CHANNELS 3 Zrotation Xrotation Yrotation
    JOINT lThigh
    {
      OFFSET 0 -1.70687 -2.19456
      CHANNELS 3 Zrotation Xrotation Yrotation
      JOINT lShin
      {
        OFFSET 0 -36.8199 0.73152
        CHANNELS 3 Zrotation Xrotation Yrotation
        JOINT lFoot
        {
          OFFSET -0.73152 -45.1104 -5.12064
          CHANNELS 3 Zrotation Xrotation Yrotation
          End Site
          {
            OFFSET 1.1221 -3.69964 12.103
          }
        }
      }
    }
  }
}
MOTION
Frames:	5
Frame Time:	0.00833333
0.0 0.0 0.0 0.0 0.0 0.0 0.0 0.0 0.0 0.0 0.0 0.0 0.0 0.0 0.0 0.0 0.0 0.0 0.0 0.0 0.0 0.0 0.0 0.0 0.0 0.0 0.0 0.0 0.0 0.0 0.0 0.0 0.0 0.0 0.0 0.0 0.0 0.0 0.0 0.0 0.0 0.0 0.0 0.0 0.0 0.0 0.0 0.0 0.0 0.0 0.0 0.0 0.0 0.0 0.0 0.0 0.0 0.0 0.0 0.0 0.0 0.0 0.0 0.0 0.0 0.0 0.0 0.0 0.0 0.0 0.0 0.0 0.0 0.0 0.0 0.0 0.0 0.0 0.0 0.0 0.0 0.0 0.0 0.0 0.0 0.0 0.0 0.0 0.0 0.0 0.0 0.0 0.0 0.0 0.0 0.0 0.0 0.0 0.0 0.0 0.0 0.0 0.0 0.0 0.0 0.0 0.0 0.0 0.0 0.0 0.0 0.0 0.0 0.0 0.0 0.0 0.0 0.0 0.0 0.0 0.0 0.0 0.0 0.0 0.0 0.0 0.0 0.0 0.0 0.0 0.0 0.0
-74.1367 83.6637 -2.46347 -0.0 -0.0 -0.0 -0.0 -4.771896 -180.0 -0.0 -4.771896 180.0 -7.906765 12.08614 -91.106352 11.93363 8.136982 91.092829 -0.0 0.0 -0.0 -0.0 0.0 -0.0 -155.417258 -2.951435 161.718542 -145.498786 25.071456 158.313239 -2.019687 33.461563 2.681188 0.596586 -1.90114 0.074996 71.831195 -48.263725 25.791675 -139.980697 9.711361 108.570124 -10.571294 15.013433 6.865128 -71.604289 50.678806 44.68483 -82.840589 61.110826 74.532293 -89.069269 66.963401 80.97828 -145.099706 -1.521107 -178.650165 -124.697206 -64.686407 -157.190325 -5.958115 -13.467971 -5.596433 -25.59488 -41.436828 -23.97461 142.973735 39.431617 -147.390037 151.980852 -2.335175 -170.955575 170.162436 -1.123321 -146.589586 -158.426234 -42.737179 -136.707116 -11.110121 -11.092107 0.639674 134.565382 -29.32382 -121.00583 139.796331 2.902182 -115.658797 -3.405664 30.683796 5.920702 -173.123457 -66.297779 -137.614274 162.614765 -6.163176 -140.46552 145.118942 0.185466 179.186604 34.380309 87.439048 -57.873318 25.537984 -38.087442 24.598474 37.830555 -50.227631 36.921504 -0.0 0.0 -0.0 -0.0 -0.0 -0.0 -2.721753 1.041334 -25.607042 80.981142 5.948809 -7.990811 -0.0 0.0 -0.0 -0.0 -0.0 -0.0 2.721753 1.041334 25.607042 -80.981142 5.948809 7.990811
-73.7522 83.5873 -2.37446 -0.0 -0.0 -0.0 -0.0 -4.771896 -180.0 -0.0 -4.771896 180.0 9.579663 3.263211 60.169506 -7.606876 6.687135 -59.997951 0.0 0.0 0.0 0.0 0.0 0.0 -9.651699 34.836178 11.199233 -13.947974 -74.820692 -25.030574 9.258762 9.562199 -0.558988 -10.234798 30.401823 1.717121 114.538671 -50.245352 55.721798 -32.87646 -8.083443 -12.887354 -19.170572 24.114561 13.380841 -70.771683 52.924494 43.700498 37.459372 -72.537098 11.712209 -164.418908 -5.165212 140.206806 -145.119466 0.267775 -179.212461 -137.153864 81.143299 161.673003 9.908448 32.238307 8.581688 -150.265303 12.016862 -142.149384 80.1661 68.371792 -83.260848 155.930584 13.928641 -178.192843 -25.034005 82.575951 21.499477 7.588997 23.393636 -0.759628 -162.659719 -31.874823 -84.280017 75.036372 17.029974 -21.498427 -103.838393 -76.254769 -53.538621 -99.624549 -57.554098 -39.937932 -3.452841 -10.534341 1.681695 7.951178 20.193619 -4.770881 132.481743 54.102976 -155.533585 -5.26553 -25.821044 20.603637 157.329919 57.246404 150.511839 147.868491 14.588287 140.848908 -0.0 0.0 -0.0 -0.0 -0.0 -0.0 -2.721753 1.041334 -25.607042 80.981142 5.948809 -7.990811 -0.0 0.0 -0.0 -0.0 -0.0 -0.0 2.721753 1.041334 25.607042 -80.981142 5.948809 7.990811
-73.3509 83.4903 -2.21853 -0.0 -0.0 -0.0 -0.0 -4.771896 -180.0 -0.0 -4.771896 -180.0 -8.004821 8.256846 -69.161918 10.546126 4.563212 69.319265 0.0 -0.0 -0.0 0.0 -0.0 -0.0 -80.1661 68.371792 83.260848 -70.364354 86.569962 89.873968 38.283446 57.521204 -50.957675 -156.84116 57.328009 132.451395 83.25393 -50.258079 33.616048 -159.975038 -31.166071 128.594464 -138.493513 4.896353 114.8648 21.634887 -9.610502 -15.278908 -0.571049 1.648356 0.322148 -161.739516 9.087806 141.392859 -75.673382 -72.116249 -92.828895 -75.503774 72.939365 93.493389 -4.582382 -10.700913 -4.29038 -160.93039 55.11723 -150.871874 80.1661 68.371792 -83.260848 70.364354 86.569962 -89.873968 -64.722571 69.276532 75.344182 132.476396 70.015073 -110.958491 -5.189684 -5.174682 0.567148 162.286524 -75.728496 -119.818856 160.10123 -33.161924 -122.700876 7.363297 40.698211 -9.667499 0.571049 1.648356 -0.322148 157.110002 20.55821 -138.652269 78.571366 -72.041604 95.867435 155.533828 -33.90002 -168.996804 7.144637 -15.70735 6.727898 -31.264344 81.595497 -3.409601 -0.0 0.0 -0.0 -0.0 -0.0 -0.0 -2.721753 1.041334 -25.607042 80.981142 5.948809 -7.990811 -0.0 0.0 -0.0 -0.0 -0.0 -0.0 2.721753 1.041334 25.607042 -80.981142 5.948809 7.990811
-73.055 83.399 -2.17205 -0.0 -0.0 -0.0 -0.0 0.0 -0.0 0.0 -0.0 -0.0 -8.004821 8.256846 -69.161918 10.546126 4.563212 69.319265 0.0 -0.0 -0.0 0.0 -0.0 -0.0 -13.015985 41.250126 14.798846 8.88745 15.768313 -3.07408 -11.634398 2.085254 -12.547411 30.041789 -56.256357 18.543361 -2.608268 2.55464 0.457401 -103.651119 8.228863 94.76387 -132.81837 12.807409 111.109258 151.37226 -73.023806 89.916285 170.913364 -68.193776 135.95011 -82.726491 61.281088 75.804229 -74.840941 72.961123 92.827929 15.233387 52.438726 -12.428268 16.516138 57.859103 12.547749 -27.93416 -39.555364 -27.446826 155.460052 -3.227798 -161.777534 0.652215 44.090615 -27.027874 -22.297501 12.55128 24.91463 158.71941 55.484741 -133.947062 -27.451228 -26.099095 -2.267476 74.317953 37.155893 -56.658269 166.821797 -43.973781 -122.061691 4.984254 36.83001 -9.49919 0.287128 0.832638 -0.160579 170.373137 -16.808534 -144.23293 145.119721 0.310087 179.225753 -22.501033 39.86414 4.550405 -12.252484 41.424931 -10.280249 -20.213343 58.450417 -5.836547 -0.0 0.0 -0.0 -0.0 -0.0 -0.0 -2.721753 1.041334 -25.607042 80.981142 5.948809 -7.990811 -0.0 0.0 -0.0 -0.0 -0.0 -0.0 2.721753 1.041334 25.607042 -80.981142 5.948809 7.990811
